<?xml version="1.0" encoding="utf-8"?>
<!-- Generator: Adobe Illustrator 25.4.1, SVG Export Plug-In . SVG Version: 6.00 Build 0)  -->
<svg version="1.1" id="Layer_1" xmlns="http://www.w3.org/2000/svg" xmlns:xlink="http://www.w3.org/1999/xlink" x="0px" y="0px"
	 viewBox="0 0 800 800" style="enable-background:new 0 0 800 800;" xml:space="preserve">
<style type="text/css">
	.st0{fill:#273B7A;}
	.st1{fill:#E6E6E6;}
	.st2{fill:#2AB2BC;}
	.st3{fill:#88E8ED;}
	.st4{fill:#FFFFFF;}
	.st5{fill:#26787A;}
	.st6{fill:#D8A1FF;}
	.st7{fill:#AF8FF2;}
	.st8{fill:#CCCCCC;}
	.st9{fill:#B3B3B3;}
	.st10{fill:#386895;}
</style>
<circle class="st0" cx="400" cy="400" r="400"/>
<path class="st1" d="M24.4,537.8C80.6,690.8,227.5,800,400,800c4.3,0,8.5-0.2,12.8-0.3c-56.2-153-203.1-262.2-375.6-262.2
	C32.9,537.5,28.7,537.7,24.4,537.8z"/>
<g>
	<path class="st2" d="M413.9,252.5c-12.3-15.4-46.9-8.1-86.5,18.4c-27.5,19.4-73.3,101.4-78.3,120.6c-5,19.1,30.6,14.4,38.3,9.9
		c12.1-7.1,46.1-59.5,49.5-64.7c3.4-5.2,25.9-5.5,43.2-9.2C385.1,308.3,407.1,262.9,413.9,252.5z"/>
	<path class="st2" d="M550.2,341c19.1,5,26.5,39.5,18.4,86.5c-6.5,33-62.9,108.2-78.3,120.6c-15.5,12.3-25.6-22.1-24.6-30.9
		c1.6-13.9,35.6-66.3,39-71.5c3.4-5.2-5.5-25.9-9.2-43.2C510.9,390,543.4,351.5,550.2,341z"/>
</g>
<path class="st3" d="M672.7,3.2C657-7,554.8,1.1,476.5,121.7C411.8,221.3,374.9,324,373.4,337.9c15.7,10.2,57.7,37.4,57.7,37.4
	s41.9,27.2,57.7,37.4c12.1-7.1,94.3-87.8,155.6-182.2C722.5,110.1,688.4,13.4,672.7,3.2z"/>
<circle class="st0" cx="570.6" cy="160.4" r="62.5"/>
<path class="st4" d="M550.1,191.9c-17.3-11.3-22.3-34.5-11-51.9c11.3-17.3,34.5-22.3,51.9-11c17.3,11.3,22.3,34.5,11,51.9
	C590.8,198.2,567.5,203.2,550.1,191.9z"/>
<g>
	<path class="st2" d="M631.8,66.1c19.3,12.5,40.3,20,61.6,22.9c2.2-48-12.1-80.1-20.8-85.8c-8.7-5.6-43.9-5.6-86.8,15.9
		C597.2,37.4,612.6,53.6,631.8,66.1z"/>
	<path class="st2" d="M478.7,451c-3.7,5.8-11.5,7.4-17.3,3.7l-115.3-74.9c-5.8-3.8-7.4-11.5-3.7-17.3l13.6-21
		c3.8-5.8,11.5-7.4,17.3-3.7l115.3,74.9c5.8,3.8,7.4,11.5,3.7,17.3L478.7,451z"/>
</g>
<path class="st5" d="M391.2,379.3c-3.8,5.8-8.3,13.1-13.1,21.3l56.7,36.8c5.5-7.7,10.3-14.9,14.1-20.7c3.8-5.8,8.3-13.1,13.2-21.2
	l-56.7-36.9C399.8,366.3,394.9,373.5,391.2,379.3z"/>
<path class="st6" d="M356.6,386.6c-41.4,63.7-93.4,192.7-65.9,210.5C318.2,615,414.8,515,456.2,451.3L356.6,386.6z"/>
<path class="st7" d="M367.1,393.5c-41.4,63.7-57.3,126.8-35.6,140.8c21.7,14.1,72.8-26.1,114.2-89.8L367.1,393.5z"/>
<ellipse transform="matrix(0.5446 -0.8387 0.8387 0.5446 -142.4897 533.5892)" class="st2" cx="420.1" cy="398" rx="106.2" ry="21.9"/>
<ellipse transform="matrix(0.3765 -0.9264 0.9264 0.3765 -469.285 508.8008)" class="st8" cx="143.4" cy="603" rx="28.1" ry="37.5"/>
<path class="st9" d="M145.4,629.2c-19.2-7.8-30-25.8-24.2-40.2c3.3-8.2,11.5-13.4,21.4-14.9c-15.2-2.2-29.2,3.4-33.9,14.9
	c-5.9,14.4,5,32.4,24.2,40.2c8.2,3.3,16.5,4.1,23.9,3C153,631.6,149.2,630.7,145.4,629.2z"/>
<ellipse transform="matrix(0.7133 -0.7008 0.7008 0.7133 -372.1337 351.5103)" class="st8" cx="243.6" cy="630.6" rx="18.4" ry="24.6"/>
<path class="st9" d="M237.8,646.6c-9.5-9.7-11.3-23.3-4.1-30.5c4.2-4.1,10.4-5.1,16.8-3.4c-8.6-5.3-18.5-5.6-24.3,0.1
	c-7.3,7.2-5.4,20.8,4.1,30.5c4.1,4.1,8.9,6.8,13.6,8C241.8,650.1,239.7,648.5,237.8,646.6z"/>
<ellipse transform="matrix(0.2718 -0.9624 0.9624 0.2718 -504.8352 731.1207)" class="st8" cx="230.7" cy="699.1" rx="28" ry="37.3"/>
<path class="st9" d="M235.7,724.7c-19.8-5.6-32.5-22.2-28.3-37.1c2.4-8.5,9.9-14.5,19.5-17.1c-15.3-0.5-28.5,6.6-31.9,18.5
	c-4.2,14.9,8.5,31.5,28.3,37.1c8.5,2.4,16.8,2.3,24,0.3C243.5,726.3,239.6,725.8,235.7,724.7z"/>
<g>
	<path class="st10" d="M174.7,131.2c0,25-6.2,31.2-31.2,31.2c25,0,31.2,6.2,31.2,31.2c0-25,6.2-31.2,31.2-31.2
		C181,162.5,174.7,156.2,174.7,131.2z"/>
	<path class="st10" d="M93.5,312.5c0,25-6.2,31.2-31.3,31.2c25,0,31.3,6.2,31.3,31.2c0-25,6.2-31.2,31.2-31.2
		C99.7,343.8,93.5,337.5,93.5,312.5z"/>
	<path class="st10" d="M181,425c0,25-6.2,31.2-31.2,31.2c25,0,31.2,6.2,31.2,31.2c0-25,6.2-31.2,31.2-31.2
		C187.2,456.2,181,450,181,425z"/>
	<path class="st10" d="M512.2,631.2c0,25-6.3,31.2-31.3,31.2c25,0,31.3,6.2,31.3,31.2c0-25,6.2-31.2,31.2-31.2
		C518.5,662.5,512.2,656.2,512.2,631.2z"/>
	<path class="st10" d="M737.2,487.5c0,25-6.2,31.2-31.2,31.2c25,0,31.2,6.2,31.2,31.2c0-25,6.2-31.2,31.2-31.2
		C743.5,518.8,737.2,512.5,737.2,487.5z"/>
	<path class="st10" d="M718.5,268.8c0,25-6.2,31.2-31.2,31.2c25,0,31.2,6.2,31.2,31.2c0-25,6.2-31.2,31.2-31.2
		C724.7,300,718.5,293.8,718.5,268.8z"/>
	<path class="st10" d="M406,43.8c0,25-6.2,31.2-31.2,31.2c25,0,31.2,6.2,31.2,31.2c0-25,6.2-31.2,31.2-31.2
		C412.2,75,406,68.8,406,43.8z"/>
	<path class="st10" d="M299.7,175c0,25-6.2,31.2-31.2,31.2c25,0,31.2,6.2,31.2,31.2c0-25,6.2-31.2,31.2-31.2
		C306,206.2,299.7,200,299.7,175z"/>
</g>
</svg>
